<svg width="5" height="22" viewBox="0 0 5 22" fill="none" xmlns="http://www.w3.org/2000/svg">
<path d="M5.00001 2.5C5.00001 3.88071 3.88072 5 2.50001 5C1.11929 5 0 3.88071 0 2.5C0 1.11929 1.11929 0 2.50001 0C3.88072 0 5.00001 1.11929 5.00001 2.5Z" fill="white"/>
<path d="M5.00001 10.5C5.00001 11.8807 3.88072 13 2.50001 13C1.11929 13 0 11.8807 0 10.5C0 9.11929 1.11929 8 2.50001 8C3.88072 8 5.00001 9.11929 5.00001 10.5Z" fill="white"/>
<path d="M5.00001 18.5085C5.00001 19.8892 3.88072 21.0085 2.50001 21.0085C1.11929 21.0085 6.12439e-06 19.8892 6.12439e-06 18.5085C6.12439e-06 17.1278 1.11929 16.0085 2.50001 16.0085C3.88072 16.0085 5.00001 17.1278 5.00001 18.5085Z" fill="white"/>
</svg>
