<svg width="21" height="26" viewBox="0 0 21 26" fill="none" xmlns="http://www.w3.org/2000/svg">
<path d="M18.3437 2.97938H14.9653V0.78402C14.9653 0.342124 14.6088 0 14.167 0C14.1241 0 14.0955 0.0143137 14.0815 0.0285948C14.0672 0.0143137 14.0386 0 14.0244 0H6.08426H6.02739H5.9702C5.52834 0 5.18622 0.342124 5.18622 0.78402V2.97941H1.79354C0.824028 2.97941 0.0686035 3.73484 0.0686035 4.70435V5.95882V7.52683H1.56543V23.5922C1.56543 24.5617 2.30658 25.3028 3.27609 25.3028H16.8612C17.8307 25.3028 18.5861 24.5617 18.5861 23.5922V7.52683H20.0686V5.95882V4.70435C20.0686 3.73484 19.3129 2.97938 18.3437 2.97938ZM6.75423 1.56801H13.383V2.97938H6.75423V1.56801ZM17.0038 23.5922C17.0038 23.6923 16.9609 23.7348 16.8612 23.7348H3.27609C3.17635 23.7348 3.13347 23.6922 3.13347 23.5922V7.5268H17.0038V23.5922ZM18.4863 5.95879H1.65089V4.70431C1.65089 4.60454 1.69377 4.54739 1.79351 4.54739H18.3437C18.4434 4.54739 18.4863 4.60454 18.4863 4.70431V5.95879Z" fill="white"/>
<path d="M14.5234 9.36578H12.9412V22.3377H14.5234V9.36578Z" fill="white"/>
<path d="M10.874 9.36578H9.29175V22.3377H10.874V9.36578Z" fill="white"/>
<path d="M7.22462 9.36578H5.64233V22.3377H7.22462V9.36578Z" fill="white"/>
</svg>
