<svg width="24" height="26" viewBox="0 0 24 26" fill="none" xmlns="http://www.w3.org/2000/svg">
<path d="M0 3C0 1.34315 1.34315 0 3 0C4.65685 0 6 1.34315 6 3V23C6 24.6569 4.65685 26 3 26C1.34315 26 0 24.6569 0 23V3Z" fill="#645BCE"/>
<path d="M9 3C9 1.34315 10.3431 0 12 0C13.6569 0 15 1.34315 15 3V23C15 24.6569 13.6569 26 12 26C10.3431 26 9 24.6569 9 23V3Z" fill="#53509F"/>
<path d="M18 3C18 1.34315 19.3431 0 21 0C22.6569 0 24 1.34315 24 3V23C24 24.6569 22.6569 26 21 26C19.3431 26 18 24.6569 18 23V3Z" fill="#454480"/>
</svg>
