<svg width="201" height="493" viewBox="0 0 201 493" fill="none" xmlns="http://www.w3.org/2000/svg">
<path d="M73.384 276.458C73.384 261.573 85.4512 249.506 100.337 249.506C115.222 249.506 127.29 261.573 127.29 276.458V430.474C127.29 445.36 115.222 457.427 100.337 457.427C85.4512 457.427 73.384 445.36 73.384 430.474V276.458Z" fill="#6461C8"/>
<path d="M127.421 65.9287C127.431 48.9057 115.373 35.0959 100.487 35.0836C85.6017 35.0712 73.5258 48.8611 73.5151 65.8841L73.4035 242.015C73.3928 259.038 85.4512 272.848 100.337 272.86C115.222 272.872 127.298 259.082 127.309 242.059L127.421 65.9287Z" fill="#47437E"/>
<path d="M0 101.967C0 87.0819 12.0672 75.0147 26.9528 75.0147C41.8384 75.0147 53.9055 87.0819 53.9055 101.967V255.983C53.9055 270.869 41.8384 282.936 26.9528 282.936C12.0672 282.936 0 270.869 0 255.983V101.967Z" fill="#6461C8"/>
<path d="M146.768 312.031C146.768 297.146 158.835 285.079 173.721 285.079C188.606 285.079 200.674 297.146 200.674 312.031V466.047C200.674 480.933 188.606 493 173.721 493C158.835 493 146.768 480.933 146.768 466.047V312.031Z" fill="#47437E"/>
<path d="M200.805 161.84C200.815 144.817 188.757 131.007 173.871 130.995C158.986 130.982 146.91 144.772 146.899 161.795L146.788 337.926C146.777 354.949 158.835 368.759 173.721 368.771C188.606 368.783 200.682 354.993 200.693 337.97L200.805 161.84Z" fill="#6461C8"/>
<path d="M200.805 30.8675C200.815 13.8445 188.757 0.0346434 173.871 0.0223166C158.986 0.00998983 146.91 13.7999 146.899 30.8229L146.788 206.954C146.777 223.977 158.835 237.786 173.721 237.799C188.606 237.811 200.682 224.021 200.693 206.998L200.805 30.8675Z" fill="#47437E"/>
<path d="M0 235.953C0 221.067 12.0672 209 26.9528 209C41.8384 209 53.9055 221.067 53.9055 235.953V389.969C53.9055 404.854 41.8384 416.921 26.9528 416.921C12.0672 416.921 0 404.854 0 389.969V235.953Z" fill="#47437E"/>
<path d="M146.768 139.987C146.768 125.101 158.835 113.034 173.721 113.034C188.606 113.034 200.674 125.101 200.674 139.987V294.003C200.674 308.888 188.606 320.955 173.721 320.955C158.835 320.955 146.768 308.888 146.768 294.003V139.987Z" fill="#5251A1"/>
<path d="M127.421 120.559C127.431 103.536 115.373 89.7262 100.487 89.7139C85.6017 89.7015 73.5258 103.491 73.5151 120.514L73.4035 296.645C73.3928 313.668 85.4512 327.478 100.337 327.49C115.222 327.503 127.298 313.713 127.309 296.69L127.421 120.559Z" fill="#5251A1"/>
<path d="M0 147.953C0 133.067 12.0672 121 26.9528 121C41.8384 121 53.9055 133.067 53.9055 147.953V301.969C53.9055 316.854 41.8384 328.921 26.9528 328.921C12.0672 328.921 0 316.854 0 301.969V147.953Z" fill="#5251A1"/>
<path d="M0 174.953C0 160.067 12.0672 148 26.9528 148C41.8384 148 53.9055 160.067 53.9055 174.953V328.969C53.9055 343.854 41.8384 355.921 26.9528 355.921C12.0672 355.921 0 343.854 0 328.969V174.953Z" fill="#5251A1"/>
</svg>
